<svg width="41" height="40" viewBox="0 0 41 40" fill="none" xmlns="http://www.w3.org/2000/svg">
<path d="M19.0608 24.6018H12.9063L11.6541 28.7432C11.6194 28.897 11.4829 29.006 11.3344 28.9985H8.21723C8.03946 28.9985 7.9773 28.8944 8.03073 28.6864L13.3592 12.3479C13.4126 12.1778 13.4659 11.9839 13.5191 11.7664C13.5888 11.388 13.6245 11.0033 13.6257 10.6177C13.6104 10.5037 13.7069 10.4031 13.8122 10.4191H18.0483C18.1724 10.4191 18.2435 10.4663 18.2615 10.5609L24.3094 28.7148C24.3627 28.904 24.3094 28.9986 24.1495 28.9984H20.6859C20.5645 29.0128 20.4485 28.9263 20.4195 28.7999L19.0608 24.6018ZM13.8654 21.0278H18.075C17.3834 18.5745 16.6029 16.1535 15.9703 13.6811C15.2877 16.1577 14.5431 18.6242 13.8654 21.0278Z" fill="#FF9A00"/>
<path d="M27.9058 13.4257C27.6341 13.4373 27.3631 13.3878 27.1106 13.2802C26.8581 13.1727 26.6297 13.0096 26.4405 12.8017C26.2517 12.5847 26.1052 12.3302 26.0091 12.0527C25.9131 11.7753 25.8695 11.4803 25.8809 11.1849C25.8712 10.8923 25.9196 10.6009 26.0229 10.3296C26.1262 10.0584 26.2821 9.81334 26.4804 9.61057C26.6768 9.4099 26.9086 9.25268 27.1624 9.148C27.4162 9.04332 27.687 8.99327 27.9591 9.00073C28.5985 9.00073 29.1003 9.20401 29.4644 9.61057C29.6482 9.82186 29.791 10.0697 29.8847 10.3398C29.9785 10.6099 30.0212 10.8971 30.0105 11.1849C30.0217 11.4815 29.9767 11.7774 29.8783 12.0552C29.7799 12.3329 29.6301 12.5868 29.4377 12.8017C29.2367 13.0127 28.9968 13.1771 28.7331 13.2845C28.4695 13.3919 28.1878 13.44 27.9058 13.4257ZM26.0674 28.7147V15.156C26.0674 14.9858 26.1382 14.9007 26.2806 14.9007H29.5577C29.6996 14.9007 29.7707 14.9858 29.7708 15.156V28.7147C29.7708 28.9039 29.6998 28.9985 29.5577 28.9984H26.3072C26.1474 28.9984 26.0675 28.9038 26.0674 28.7147Z" fill="#FF9A00"/>
</svg>
