<svg width="40" height="40" viewBox="0 0 40 40" fill="none" xmlns="http://www.w3.org/2000/svg">
<path fill-rule="evenodd" clip-rule="evenodd" d="M20 40C31.0457 40 40 31.0457 40 20C40 8.9543 31.0457 0 20 0C8.9543 0 0 8.9543 0 20C0 31.0457 8.9543 40 20 40ZM17.3962 13.5685C16.8692 13.4488 16.3295 13.3934 15.7891 13.4035H10V26.3521H15.9624C16.5054 26.3534 17.0461 26.2807 17.5695 26.1359C18.0742 25.9995 18.5496 25.7715 18.972 25.4635C19.3823 25.1521 19.714 24.7489 19.9406 24.2862C20.1857 23.7559 20.3064 23.1766 20.2937 22.5925C20.316 21.8599 20.1217 21.137 19.7352 20.5143C19.3325 19.9266 18.7334 19.5018 18.0455 19.3163C18.5524 19.0785 18.9854 18.7079 19.2987 18.2438C19.5965 17.7525 19.7431 17.1844 19.7203 16.6103C19.7337 16.0875 19.6367 15.5677 19.4357 15.0848C19.2608 14.6922 18.9856 14.3525 18.6379 14.0998C18.2614 13.8457 17.84 13.6654 17.3962 13.5685ZM16.6306 18.2801C16.2877 18.531 15.8697 18.6582 15.4451 18.6407V18.6522H12.7011V15.6269H15.2487C15.482 15.6225 15.7151 15.6427 15.9442 15.6871C16.1554 15.7215 16.3571 15.7993 16.5366 15.9156C16.7138 16.0213 16.857 16.1756 16.9491 16.3603C17.0576 16.5923 17.1086 16.847 17.0976 17.1028C17.117 17.3219 17.0848 17.5424 17.0037 17.7469C16.9227 17.9513 16.7949 18.1339 16.6306 18.2801ZM16.3567 24.0709C16.1066 24.1292 15.8504 24.1569 15.5936 24.1534H12.7011V20.5877H15.6505C16.1562 20.5593 16.656 20.7081 17.0638 21.0084C17.2562 21.1899 17.4045 21.4131 17.4973 21.6608C17.5901 21.9085 17.6249 22.1741 17.5992 22.4374C17.6133 22.7262 17.5587 23.0143 17.44 23.2781C17.3375 23.4849 17.1846 23.6625 16.9953 23.7945C16.802 23.9266 16.5853 24.0204 16.3567 24.0709ZM24.1407 24.1055C24.3527 24.302 24.6025 24.4534 24.8748 24.5504C25.1471 24.6474 25.4363 24.6881 25.7248 24.6699C26.1821 24.6814 26.6306 24.5423 27.0011 24.2738C27.3025 24.0779 27.5307 23.7879 27.6503 23.4488H29.8045C29.5749 24.414 29.0145 25.2681 28.2204 25.8628C27.4587 26.3684 26.5585 26.6245 25.6447 26.5954C24.9926 26.604 24.3453 26.4814 23.7414 26.2349C23.1952 26.0071 22.7053 25.6627 22.3059 25.2259C21.9081 24.7682 21.6024 24.2379 21.4058 23.6642C21.1851 23.0229 21.0771 22.3482 21.0865 21.6701C21.0825 21.0033 21.1942 20.3409 21.4165 19.7123C21.7153 18.828 22.2865 18.0611 23.0482 17.5216C23.8099 16.982 24.7229 16.6977 25.6563 16.7093C26.3454 16.6949 27.0268 16.8562 27.6363 17.1779C28.1873 17.48 28.6626 17.9031 29.0265 18.4154C29.3987 18.953 29.6655 19.5563 29.8127 20.1933C29.9741 20.8774 30.0317 21.5819 29.9835 22.2831H23.5674C23.5154 22.9419 23.7209 23.5952 24.1407 24.1055ZM26.9557 19.181C26.7761 19.0015 26.5602 18.8624 26.3224 18.7733C26.0846 18.6843 25.8304 18.6472 25.5771 18.6646C25.241 18.6518 24.9073 18.7262 24.6085 18.8807C24.3717 19.0111 24.1626 19.1866 23.9931 19.3972C23.8428 19.5947 23.7309 19.8185 23.6631 20.0572C23.6019 20.2563 23.5637 20.4616 23.5492 20.6694H27.5233C27.4887 20.1279 27.2914 19.6094 26.9573 19.1819L26.9557 19.181ZM23.0369 14.2681H28.0166V15.5411H23.0369V14.2681Z" fill="#1F1F1F"/>
</svg>
