<svg width="41" height="40" viewBox="0 0 41 40" fill="none" xmlns="http://www.w3.org/2000/svg">
<path fill-rule="evenodd" clip-rule="evenodd" d="M20.0122 21C20.0122 18.7909 21.8031 17 24.0122 17C26.2213 17 28.0122 18.7909 28.0122 21C28.0122 23.2091 26.2213 25 24.0122 25C21.8031 25 20.0122 23.2091 20.0122 21Z" fill="#1ABCFE"/>
<path fill-rule="evenodd" clip-rule="evenodd" d="M12.0122 29C12.0122 26.7909 13.8031 25 16.0122 25H20.0122V29C20.0122 31.2091 18.2213 33 16.0122 33C13.8031 33 12.0122 31.2091 12.0122 29Z" fill="#0ACF83"/>
<path fill-rule="evenodd" clip-rule="evenodd" d="M20.0122 9V17H24.0122C26.2213 17 28.0122 15.2091 28.0122 13C28.0122 10.7909 26.2213 9 24.0122 9H20.0122Z" fill="#FF7262"/>
<path fill-rule="evenodd" clip-rule="evenodd" d="M12.0122 13C12.0122 15.2091 13.8031 17 16.0122 17H20.0122V9H16.0122C13.8031 9 12.0122 10.7909 12.0122 13Z" fill="#F24E1E"/>
<path fill-rule="evenodd" clip-rule="evenodd" d="M12.0122 21C12.0122 23.2091 13.8031 25 16.0122 25H20.0122V17H16.0122C13.8031 17 12.0122 18.7909 12.0122 21Z" fill="#A259FF"/>
</svg>
