<svg width="40" height="40" viewBox="0 0 40 40" fill="none" xmlns="http://www.w3.org/2000/svg">
<path fill-rule="evenodd" clip-rule="evenodd" d="M40 20C40 31.0457 31.0457 40 20 40C8.9543 40 0 31.0457 0 20C0 8.9543 8.9543 0 20 0C31.0457 0 40 8.9543 40 20ZM20 11C17.5556 11 17.2496 11.0102 16.2896 11.054C15.3314 11.0978 14.6768 11.2502 14.1044 11.4728C13.5044 11.6984 12.9602 12.0524 12.5102 12.5108C12.0525 12.9603 11.6983 13.5041 11.4722 14.1044C11.2508 14.6768 11.0978 15.332 11.054 16.2902C11.0108 17.2496 11 17.555 11 20C11 22.445 11.0102 22.7504 11.054 23.7104C11.0978 24.6686 11.2502 25.3232 11.4728 25.8956C11.6984 26.4956 12.0524 27.0398 12.5108 27.4898C12.9603 27.9475 13.5041 28.3017 14.1044 28.5278C14.6768 28.7498 15.3314 28.9022 16.2896 28.946C17.2496 28.9898 17.5556 29 20 29C22.4444 29 22.7504 28.9898 23.7104 28.946C24.6686 28.9022 25.3232 28.7498 25.8956 28.5272C26.4956 28.3016 27.0398 27.9476 27.4898 27.4892C27.9475 27.0397 28.3017 26.4959 28.5278 25.8956C28.7498 25.3232 28.9022 24.6686 28.946 23.7104C28.9898 22.7504 29 22.4444 29 20C29 17.5556 28.9898 17.2496 28.946 16.2896C28.9022 15.3314 28.7498 14.6768 28.5272 14.1044C28.3012 13.5038 27.947 12.9598 27.4892 12.5102C27.0397 12.0525 26.4959 11.6983 25.8956 11.4722C25.3232 11.2508 24.668 11.0978 23.7098 11.054C22.7504 11.0108 22.445 11 20 11ZM20 12.6218C22.403 12.6218 22.688 12.6308 23.6372 12.674C24.5144 12.7142 24.9908 12.86 25.3082 12.9842C25.7282 13.1468 26.0282 13.3424 26.3432 13.6568C26.6582 13.9718 26.8532 14.2718 27.0158 14.6918C27.1394 15.0092 27.2858 15.4856 27.326 16.3628C27.3692 17.312 27.3782 17.597 27.3782 20C27.3782 22.403 27.3692 22.688 27.326 23.6372C27.2858 24.5144 27.14 24.9908 27.0158 25.3082C26.8718 25.6991 26.6419 26.0528 26.3432 26.3432C26.0528 26.642 25.6992 26.8718 25.3082 27.0158C24.9908 27.1394 24.5144 27.2858 23.6372 27.326C22.688 27.3692 22.4036 27.3782 20 27.3782C17.5964 27.3782 17.312 27.3692 16.3628 27.326C15.4856 27.2858 15.0092 27.14 14.6918 27.0158C14.3009 26.8718 13.9472 26.6419 13.6568 26.3432C13.3581 26.0528 13.1283 25.6991 12.9842 25.3082C12.8606 24.9908 12.7142 24.5144 12.674 23.6372C12.6308 22.688 12.6218 22.403 12.6218 20C12.6218 17.597 12.6308 17.312 12.674 16.3628C12.7142 15.4856 12.86 15.0092 12.9842 14.6918C13.1468 14.2718 13.3424 13.9718 13.6568 13.6568C13.9472 13.358 14.3008 13.1282 14.6918 12.9842C15.0092 12.8606 15.4856 12.7142 16.3628 12.674C17.312 12.6308 17.597 12.6218 20 12.6218ZM18.8508 22.7744C19.2151 22.9253 19.6056 23.003 20 23.003C20.7964 23.003 21.5603 22.6866 22.1234 22.1234C22.6866 21.5603 23.003 20.7964 23.003 20C23.003 19.2036 22.6866 18.4397 22.1234 17.8766C21.5603 17.3134 20.7964 16.997 20 16.997C19.6056 16.997 19.2151 17.0747 18.8508 17.2256C18.4865 17.3765 18.1554 17.5977 17.8766 17.8766C17.5977 18.1554 17.3765 18.4865 17.2256 18.8508C17.0747 19.2151 16.997 19.6056 16.997 20C16.997 20.3944 17.0747 20.7849 17.2256 21.1492C17.3765 21.5135 17.5977 21.8446 17.8766 22.1234C18.1554 22.4023 18.4865 22.6235 18.8508 22.7744ZM16.7289 16.7289C17.5965 15.8614 18.7731 15.374 20 15.374C21.2269 15.374 22.4035 15.8614 23.2711 16.7289C24.1386 17.5965 24.626 18.7731 24.626 20C24.626 21.2269 24.1386 22.4035 23.2711 23.2711C22.4035 24.1386 21.2269 24.626 20 24.626C18.7731 24.626 17.5965 24.1386 16.7289 23.2711C15.8614 22.4035 15.374 21.2269 15.374 20C15.374 18.7731 15.8614 17.5965 16.7289 16.7289ZM25.6515 16.0632C25.8566 15.8582 25.9718 15.58 25.9718 15.29C25.9718 15 25.8566 14.7218 25.6515 14.5168C25.4464 14.3117 25.1683 14.1965 24.8783 14.1965C24.5883 14.1965 24.3101 14.3117 24.1051 14.5168C23.9 14.7218 23.7848 15 23.7848 15.29C23.7848 15.58 23.9 15.8582 24.1051 16.0632C24.3101 16.2683 24.5883 16.3835 24.8783 16.3835C25.1683 16.3835 25.4464 16.2683 25.6515 16.0632Z" fill="#1F1F1F"/>
</svg>
