<svg width="41" height="40" viewBox="0 0 41 40" fill="none" xmlns="http://www.w3.org/2000/svg">
<rect x="9.51221" y="9" width="22" height="22" fill="#FFCA28"/>
<path d="M22.8694 27.2974L24.4891 26.2256C24.6161 26.6244 25.4199 27.5716 26.4353 27.5716C27.4507 27.5716 27.9221 27.017 27.9221 26.6493C27.9221 25.6474 26.8853 25.2941 26.3873 25.1245C26.3061 25.0968 26.2392 25.074 26.1935 25.0541C26.1701 25.0439 26.1346 25.0303 26.0891 25.0129C25.5353 24.8013 23.4919 24.0207 23.4919 21.7577C23.4919 19.2652 25.8974 18.9785 26.4413 18.9785C26.7972 18.9785 28.5084 19.0221 29.3606 20.6236L27.7891 21.7203C27.4446 21.0224 26.8722 20.7918 26.5199 20.7918C25.6496 20.7918 25.4683 21.4299 25.4683 21.7203C25.4683 22.5353 26.4138 22.9005 27.2123 23.209C27.4211 23.2897 27.62 23.3665 27.7891 23.4464C28.6595 23.8577 29.9408 24.5307 29.9408 26.6493C29.9408 27.7105 29.0507 29.4285 26.81 29.4285C23.8001 29.4285 23.0023 27.6214 22.8694 27.2974Z" fill="#3E3E3E"/>
<path d="M15.0122 27.5102L16.7005 26.439C16.8327 26.8376 17.3468 27.5725 18.0926 27.5725C18.8385 27.5725 19.2202 26.8064 19.2202 26.439V19.2142H21.2965V26.439C21.3301 27.4355 20.7774 29.4285 18.3383 29.4285C16.0957 29.4285 15.1634 28.0957 15.0122 27.5102Z" fill="#3E3E3E"/>
</svg>
