<svg width="40" height="40" viewBox="0 0 40 40" fill="none" xmlns="http://www.w3.org/2000/svg">
<path fill-rule="evenodd" clip-rule="evenodd" d="M20 40C31.0457 40 40 31.0457 40 20C40 8.9543 31.0457 0 20 0C8.9543 0 0 8.9543 0 20C0 31.0457 8.9543 40 20 40ZM15.1392 10.9325C15.1392 12.2759 13.9747 13.3649 12.5383 13.3649C11.1019 13.3649 9.9375 12.2759 9.9375 10.9325C9.9375 9.58905 11.1019 8.5 12.5383 8.5C13.9747 8.5 15.1392 9.58905 15.1392 10.9325ZM10.2932 15.1529H14.739V28.625H10.2932V15.1529ZM17.451 15.1529H21.8969V16.8813C22.6431 15.932 24.0759 14.8826 26.3872 14.8826C30.2793 14.8826 31.4623 16.9746 31.5 21.5147V28.625H27.0541C27.0541 27.7463 27.048 26.8629 27.0419 25.9798L27.0419 25.9794C27.0333 24.727 27.0246 23.4752 27.0334 22.2383C27.0448 20.6246 27.0596 18.5417 24.6089 18.5417C22.4404 18.5417 21.8969 20.1403 21.8969 21.732V28.625H17.451V15.1529Z" fill="#1F1F1F"/>
</svg>
