<svg width="41" height="40" viewBox="0 0 41 40" fill="none" xmlns="http://www.w3.org/2000/svg">
<path d="M12.6355 20.5121C7.93607 23.9044 7.01221 28.8636 7.01221 33C7.22643 31.7657 8.20916 28.8715 10.4263 27.1697C13.72 24.6416 19.7449 25.4745 26.3321 21.1818C32.9194 16.8892 33.562 11.2939 32.7186 7C32.1325 11.1433 30.1325 12.949 27.3765 14.5636C21.3917 18.0697 17.6563 16.8879 12.6355 20.5121Z" fill="url(#paint0_linear_133_131)"/>
<path d="M12.6355 20.5121C7.93607 23.9044 7.01221 28.8636 7.01221 33C7.22643 31.7657 8.20916 28.8715 10.4263 27.1697C13.72 24.6416 19.7449 25.4745 26.3321 21.1818C32.9194 16.8892 33.562 11.2939 32.7186 7C32.1325 11.1433 30.1325 12.949 27.3765 14.5636C21.3917 18.0697 17.6563 16.8879 12.6355 20.5121Z" fill="url(#paint1_linear_133_131)"/>
<path d="M7.06842 31.3045C7.32629 27.5671 8.56365 23.4514 12.6355 20.5122C15.2529 18.6228 17.521 18.0396 19.9406 17.4174C21.3526 17.0543 22.8162 16.678 24.431 16.021C23.8419 16.5728 21.0425 17.861 18.931 18.7217C16.825 19.5802 14.6047 20.4852 12.756 21.694C9.04682 24.1193 7.53864 28.3388 7.06842 31.3045Z" fill="url(#paint2_linear_133_131)"/>
<path d="M7.06842 31.3045C7.32629 27.5671 8.56365 23.4514 12.6355 20.5122C15.2529 18.6228 17.521 18.0396 19.9406 17.4174C21.3526 17.0543 22.8162 16.678 24.431 16.021C23.8419 16.5728 21.0425 17.861 18.931 18.7217C16.825 19.5802 14.6047 20.4852 12.756 21.694C9.04682 24.1193 7.53864 28.3388 7.06842 31.3045Z" fill="url(#paint3_linear_133_131)"/>
<path d="M29.9283 18.1143C29.4664 18.558 28.9514 18.9553 28.3806 19.2911C25.81 20.8039 23.0776 21.2917 20.4189 21.7664C18.3003 22.1447 16.2285 22.5146 14.3225 23.3881C10.025 25.3577 7.3741 29.4542 7.01233 32.9995C7.0123 32.9997 7.01228 32.9998 7.01225 33C7.01224 32.9993 7.01222 32.9987 7.01221 32.9981C7.01223 32.7274 7.01621 32.4533 7.02494 32.1763C7.04683 31.7369 7.09316 31.2499 7.16981 30.7307C7.73716 27.815 9.28022 23.9668 12.756 21.6941C14.2274 20.7321 15.9342 19.9624 17.6313 19.2555C19.1239 18.7749 20.4691 18.4758 21.7507 18.1908C23.7682 17.7422 25.6282 17.3286 27.6577 16.2972C31.9162 14.1329 33.0319 9.68548 32.732 7.06934C33.3687 10.3842 33.1113 14.4613 29.9283 18.1143Z" fill="url(#paint4_linear_133_131)"/>
<path d="M29.9282 18.114C29.4664 18.5577 28.9514 18.9549 28.3807 19.2908C25.8101 20.8035 23.0777 21.2913 20.419 21.766C18.3004 22.1443 16.2285 22.5142 14.3225 23.3877C11.851 24.5204 9.92415 26.3566 8.66406 28.3869C9.77589 26.8546 11.4697 25.1429 13.5594 24.4908C15.5985 23.8544 17.5435 23.7887 19.5642 23.7204C20.1433 23.7008 20.7287 23.681 21.3243 23.6475C22.9294 23.0744 24.6116 22.3029 26.3322 21.1817C27.8152 20.2152 28.9969 19.1828 29.9282 18.114Z" fill="url(#paint5_linear_133_131)"/>
<path d="M29.9282 18.114C29.4664 18.5577 28.9514 18.9549 28.3807 19.2908C25.8101 20.8035 23.0777 21.2913 20.419 21.766C18.3004 22.1443 16.2285 22.5142 14.3225 23.3877C11.851 24.5204 9.92415 26.3566 8.66406 28.3869C9.77589 26.8546 11.4697 25.1429 13.5594 24.4908C15.5985 23.8544 17.5435 23.7887 19.5642 23.7204C20.1433 23.7008 20.7287 23.681 21.3243 23.6475C22.9294 23.0744 24.6116 22.3029 26.3322 21.1817C27.8152 20.2152 28.9969 19.1828 29.9282 18.114Z" fill="url(#paint6_linear_133_131)"/>
<path d="M32.732 7.0691C32.7275 7.04603 32.7231 7.023 32.7185 7C32.1325 11.1433 30.1325 12.949 27.3764 14.5636C26.3324 15.1753 25.3568 15.6442 24.4309 16.0209C23.8417 16.5728 21.0425 17.8609 18.931 18.7216L18.9307 18.7217C18.501 18.8969 18.0665 19.074 17.6314 19.2552C19.1239 18.7746 20.4691 18.4755 21.7507 18.1906C23.7682 17.742 25.6282 17.3284 27.6576 16.297C31.9162 14.1327 33.0319 9.68524 32.732 7.0691Z" fill="url(#paint7_linear_133_131)"/>
<path d="M32.732 7.0691C32.7275 7.04603 32.7231 7.023 32.7185 7C32.1325 11.1433 30.1325 12.949 27.3764 14.5636C26.3324 15.1753 25.3568 15.6442 24.4309 16.0209C23.8417 16.5728 21.0425 17.8609 18.931 18.7216L18.9307 18.7217C18.501 18.8969 18.0665 19.074 17.6314 19.2552C19.1239 18.7746 20.4691 18.4755 21.7507 18.1906C23.7682 17.742 25.6282 17.3284 27.6576 16.297C31.9162 14.1327 33.0319 9.68524 32.732 7.0691Z" fill="url(#paint8_linear_133_131)"/>
<defs>
<linearGradient id="paint0_linear_133_131" x1="21.713" y1="22.6394" x2="7.99978" y2="32.6612" gradientUnits="userSpaceOnUse">
<stop stop-color="#FE5004"/>
<stop offset="0.602538" stop-color="#FFB915"/>
<stop offset="1" stop-color="#FFFC41"/>
</linearGradient>
<linearGradient id="paint1_linear_133_131" x1="16.2103" y1="23.4667" x2="16.2875" y2="24.885" gradientUnits="userSpaceOnUse">
<stop stop-color="#FD3E00"/>
<stop offset="1" stop-color="#FD4400" stop-opacity="0"/>
</linearGradient>
<linearGradient id="paint2_linear_133_131" x1="24.4443" y1="15.3122" x2="5.18005" y2="32.7806" gradientUnits="userSpaceOnUse">
<stop stop-color="#005FC6"/>
<stop offset="0.279756" stop-color="#23A4DF"/>
<stop offset="0.465158" stop-color="#3AC2B7"/>
<stop offset="0.640642" stop-color="#60EC7A"/>
<stop offset="0.818668" stop-color="#CFFDBD"/>
<stop offset="1" stop-color="#D0FCB6"/>
</linearGradient>
<linearGradient id="paint3_linear_133_131" x1="20.4679" y1="18.5819" x2="18.8104" y2="17.0529" gradientUnits="userSpaceOnUse">
<stop stop-color="#0061CB"/>
<stop offset="1" stop-color="#067EEA" stop-opacity="0"/>
</linearGradient>
<linearGradient id="paint4_linear_133_131" x1="32.7989" y1="7.03963" x2="7.52481" y2="33.4514" gradientUnits="userSpaceOnUse">
<stop stop-color="#8E55F1"/>
<stop offset="0.140795" stop-color="#8B48DF"/>
<stop offset="0.274905" stop-color="#E04DD9"/>
<stop offset="0.492309" stop-color="#F496C8"/>
<stop offset="0.633104" stop-color="#FAD2BA"/>
<stop offset="0.856964" stop-color="#FEF7E5"/>
<stop offset="1" stop-color="#FFF5BF"/>
</linearGradient>
<linearGradient id="paint5_linear_133_131" x1="30.2684" y1="17.8726" x2="9.36193" y2="27.5137" gradientUnits="userSpaceOnUse">
<stop stop-color="#F41A73"/>
<stop offset="0.399909" stop-color="#FC50A3"/>
<stop offset="0.584511" stop-color="#FE9485"/>
<stop offset="0.703104" stop-color="#FFAF88"/>
<stop offset="1" stop-color="#FFC385"/>
</linearGradient>
<linearGradient id="paint6_linear_133_131" x1="22.677" y1="20.7483" x2="22.7157" y2="22.6393" gradientUnits="userSpaceOnUse">
<stop stop-color="#9B0008"/>
<stop offset="1" stop-color="#EA115A" stop-opacity="0"/>
</linearGradient>
<linearGradient id="paint7_linear_133_131" x1="32.7989" y1="9.16667" x2="14.0226" y2="21.6732" gradientUnits="userSpaceOnUse">
<stop stop-color="#231283"/>
<stop offset="0.362865" stop-color="#7053C6"/>
<stop offset="0.466353" stop-color="#7272DB"/>
<stop offset="0.634311" stop-color="#399EE9"/>
<stop offset="1" stop-color="#00CFFF"/>
</linearGradient>
<linearGradient id="paint8_linear_133_131" x1="28.0593" y1="15.3121" x2="28.8824" y2="16.3912" gradientUnits="userSpaceOnUse">
<stop stop-color="#3F259D" stop-opacity="0"/>
<stop offset="1" stop-color="#412DAA"/>
</linearGradient>
</defs>
</svg>
