<svg width="41" height="40" viewBox="0 0 41 40" fill="none" xmlns="http://www.w3.org/2000/svg">
<path d="M9.01221 28.5043V11.2845C9.01221 11.1673 9.06212 11.1004 9.17858 11.1004C10.8978 11.1004 12.6163 11 14.3361 11C17.1266 11 20.1481 11.9357 21.2072 14.7987C21.4568 15.5016 21.5899 16.2212 21.5899 16.9742C21.5899 18.4134 21.2571 19.6015 20.5916 20.5387C18.7327 23.1564 15.5107 23.1158 12.6225 23.1158V28.4875C12.645 28.6466 12.5069 28.7218 12.3729 28.7218H9.21185C9.07876 28.7218 9.01221 28.6549 9.01221 28.5043ZM12.6391 14.3302V19.9529C13.7843 20.0352 14.9826 20.0441 16.083 19.6852C17.2977 19.3415 17.963 18.3103 17.963 17.0746C17.9967 16.0217 17.4117 15.0114 16.4157 14.6314C15.3286 14.1881 13.8125 14.1615 12.6391 14.3302Z" fill="#31A8FF"/>
<path d="M31.9667 18.842C31.4633 18.5819 30.9271 18.3915 30.3729 18.2762C29.6607 18.1119 26.8516 17.5363 26.8506 18.9768C26.8755 19.7809 28.1772 20.1749 28.7523 20.4047C30.7714 21.0845 33.0562 22.2997 33.0113 24.7425C33.073 27.7834 30.0687 28.9991 27.4934 28.9994C26.1527 29.013 24.7561 28.8093 23.5291 28.245C23.412 28.1841 23.3366 28.0541 23.3416 27.9216V25.0119C23.3284 24.8952 23.4561 24.7932 23.5559 24.8772C24.7581 25.5902 26.183 25.9363 27.5737 25.9548C28.1877 25.9548 29.4044 25.8965 29.3952 25.0119C29.3952 24.1629 27.9397 23.7726 27.3595 23.5569C26.5184 23.2625 25.7209 22.8547 24.9889 22.3446C23.9659 21.6289 23.3241 20.4815 23.3416 19.2192C23.3356 16.3559 26.1011 15.0707 28.5916 15.0701C29.7559 15.0607 31.0062 15.1452 32.09 15.6089C32.2459 15.6539 32.2782 15.8149 32.2775 15.9592V18.6804C32.2874 18.8493 32.0961 18.9068 31.9667 18.842Z" fill="#31A8FF"/>
</svg>
