<svg width="41" height="40" viewBox="0 0 41 40" fill="none" xmlns="http://www.w3.org/2000/svg">
<path fill-rule="evenodd" clip-rule="evenodd" d="M12.1213 10.7902L20.0122 10L27.9031 10.7902L34.0121 18.558L20.0122 33.9999L6.01221 18.558L12.1213 10.7902Z" fill="#FDB300"/>
<path d="M11.6828 18.5581L20.0121 34.0001L6.01221 18.5581H11.6828ZM28.3416 18.5581L20.0123 34.0001L34.0122 18.5581" fill="#EA6C00"/>
<path fill-rule="evenodd" clip-rule="evenodd" d="M11.6828 18.5581H28.3414L20.0121 34.0001" fill="#FDAD00"/>
<path d="M20.0121 10L12.1212 10.79L11.6828 18.5579L20.0121 10ZM20.0122 10L27.9031 10.79L28.3415 18.5579" fill="#FDD231"/>
<path d="M34.0122 18.5579L27.9032 10.79L28.3416 18.5579H34.0122ZM6.01221 18.5579L12.1212 10.79L11.6828 18.5579" fill="#FDAD00"/>
<path fill-rule="evenodd" clip-rule="evenodd" d="M20.0121 10L11.6828 18.5579H28.3414" fill="#FEEEB7"/>
</svg>
